<?xml version="1.0" encoding="UTF-8" standalone="no"?>
<svg
   id="Layer_1"
   data-name="Layer 1"
   viewBox="0 0 88.04 58.58"
   version="1.1"
   sodipodi:docname="mpb-logo.svg"
   inkscape:version="1.3.2 (091e20e, 2023-11-25, custom)"
   xmlns:inkscape="http://www.inkscape.org/namespaces/inkscape"
   xmlns:sodipodi="http://sodipodi.sourceforge.net/DTD/sodipodi-0.dtd"
   xmlns="http://www.w3.org/2000/svg"
   xmlns:svg="http://www.w3.org/2000/svg">
  <sodipodi:namedview
     id="namedview9"
     pagecolor="#ffffff"
     bordercolor="#000000"
     borderopacity="0.25"
     inkscape:showpageshadow="2"
     inkscape:pageopacity="0.0"
     inkscape:pagecheckerboard="0"
     inkscape:deskcolor="#d1d1d1"
     inkscape:zoom="5.66"
     inkscape:cx="45.4947"
     inkscape:cy="30.388693"
     inkscape:window-width="1440"
     inkscape:window-height="740"
     inkscape:window-x="-6"
     inkscape:window-y="-6"
     inkscape:window-maximized="1"
     inkscape:current-layer="Layer_1"
     showguides="false" />
  <defs
     id="defs1">
    <style
       id="style1">
      .cls-1 {
        font-family: Roboto-Light, Roboto;
        font-size: 52px;
        font-weight: 300;
      }

      .cls-2 {
        fill: none;
      }
    </style>
  </defs>
  <path
     style="fill:#ececec;fill-opacity:1;stroke:#cccccc;stroke-width:0.107643"
     d="m 22.917753,54.297964 c -3.220236,-0.341731 -6.021475,-2.019931 -7.403429,-4.435333 -0.440798,-0.770434 -0.943126,-2.3209 -1.082726,-3.341895 -0.06332,-0.463111 -0.115129,-2.075622 -0.115129,-3.583359 0,-1.507738 -0.05178,-3.205717 -0.115069,-3.773289 -0.350882,-3.14674 -1.762997,-5.485401 -3.991379,-6.610285 C 9.0363048,31.961313 7.14414,31.599638 5.1937567,31.594976 l -0.780409,-0.0019 v -1.87174 -1.871739 l 1.4262648,-0.07432 c 1.9467957,-0.101442 3.2106477,-0.369269 4.3539505,-0.92266 2.224321,-1.076633 3.654753,-3.43152 4.007837,-6.59801 0.06329,-0.567572 0.115069,-2.265552 0.115069,-3.773289 0,-3.099119 0.09327,-4.011872 0.5512,-5.394162 0.75848,-2.2895184 2.167086,-3.8600573 4.454182,-4.9662355 1.786195,-0.8639117 3.285385,-1.1133063 6.700754,-1.1146902 l 2.179763,-8.832e-4 V 6.350915 c 0,0.740043 0.02629,1.3455328 0.05842,1.3455328 0.03213,0 0.310654,-0.186074 0.618945,-0.4134975 2.983968,-2.2012542 6.927326,-3.8469755 10.894219,-4.5465932 1.639087,-0.2890761 5.090716,-0.398186 6.849368,-0.2165162 4.346218,0.4489671 8.95299,2.1795934 12.390104,4.6545923 0.398716,0.287108 0.7499,0.5220146 0.780409,0.5220146 0.03051,0 0.05547,-0.6054898 0.05547,-1.3455328 V 5.0053821 l 2.179764,3.033e-4 c 3.448812,4.797e-4 4.960987,0.2614551 6.808396,1.1750119 2.502198,1.2373549 3.986159,3.1320494 4.643784,5.9290977 0.120983,0.514575 0.186656,1.724864 0.248237,4.574812 0.06239,2.887593 0.127134,4.068574 0.254039,4.634193 0.626991,2.79451 1.865381,4.554618 3.89592,5.537224 1.212259,0.586628 1.898296,0.73945 3.955867,0.881203 l 1.803014,0.124216 v 1.865834 1.865834 l -0.780409,0.0019 c -1.173565,0.0028 -2.72823,0.189559 -3.628087,0.435824 -2.575377,0.704804 -4.376149,2.618931 -5.062182,5.380839 -0.124202,0.500025 -0.25278,1.006014 -0.285729,1.124421 -0.03295,0.118407 -0.09726,1.983316 -0.142924,4.144241 -0.07888,3.732995 -0.0968,3.981162 -0.359416,4.975655 -0.675662,2.558658 -2.184289,4.410258 -4.542114,5.574729 -1.796366,0.88718 -3.532084,1.182663 -6.947172,1.182663 H 59.8493 V 52.70295 50.992517 l 2.341227,-0.05358 c 1.65108,-0.03779 2.541886,-0.104917 3.021934,-0.227737 1.617788,-0.413911 2.682287,-1.20986 3.301756,-2.468797 0.647061,-1.315005 0.712049,-1.825242 0.804407,-6.315566 0.0913,-4.438792 0.126645,-4.706809 0.821102,-6.22608 0.962003,-2.104584 2.853314,-3.879973 5.492625,-5.155971 0.972846,-0.47033 1.009199,-0.500763 1.009199,-0.844843 0,-0.342498 -0.03697,-0.374262 -0.913871,-0.785192 C 74.273241,28.233144 73.019365,27.3554 71.959096,26.276616 70.95763,25.257661 70.451507,24.518362 70.014185,23.435661 69.42956,21.988274 69.405301,21.781207 69.317874,17.491927 69.25566,14.439603 69.194098,13.273896 69.065403,12.711255 68.684607,11.046456 67.799973,9.7942441 66.588267,9.204833 65.451559,8.6519031 64.8137,8.533454 62.671846,8.4775628 l -1.967551,-0.051343 1.306747,1.276664 c 2.884708,2.8182982 5.056239,6.1324072 6.387974,9.7490832 0.491969,1.336072 1.076983,3.667131 1.31807,5.252016 0.262669,1.72675 0.264489,5.502397 0.0035,7.212056 -0.437466,2.865457 -1.184919,5.253155 -2.443017,7.80409 -1.359941,2.757432 -2.830645,4.81819 -4.953935,6.94148 -3.298479,3.298478 -7.339724,5.609353 -11.855389,6.779178 -6.794176,1.760094 -13.904813,0.696918 -19.951537,-2.983135 -7.977172,-4.854926 -12.74268,-13.719524 -12.398197,-23.062604 0.140495,-3.810498 0.945582,-6.997819 2.65098,-10.495156 1.426884,-2.926175 3.305742,-5.42316 5.851944,-7.7771795 L 27.349126,8.4499461 H 25.74244 c -4.086714,0 -5.907292,1.1010888 -6.707365,4.0566249 -0.204494,0.755416 -0.235521,1.252389 -0.304523,4.877713 -0.08457,4.443472 -0.147473,4.911791 -0.865887,6.44709 -0.949878,2.029946 -3.103473,3.988218 -5.644675,5.132721 -0.860677,0.387631 -0.91743,0.433497 -0.9165,0.740708 9.29e-4,0.306882 0.0602,0.354532 0.941873,0.757225 2.536523,1.158523 4.62469,3.050986 5.583309,5.060039 0.753125,1.57838 0.815456,2.028121 0.902593,6.512379 0.0702,3.612676 0.102227,4.124932 0.304969,4.877712 0.555128,2.061189 1.614621,3.171375 3.568741,3.739493 0.686345,0.199541 1.166211,0.242812 3.202368,0.28877 l 2.395048,0.05406 v 1.709435 1.709434 l -2.233584,-0.01432 c -1.228472,-0.0079 -2.601435,-0.05335 -3.051031,-0.101065 z m 24.765879,-2.306916 c 8.830179,-1.39078 16.191483,-7.591906 19.000226,-16.005693 0.881405,-2.640312 1.238639,-4.853946 1.238639,-7.675344 0,-5.279474 -1.597565,-10.089545 -4.772794,-14.370291 C 61.568972,11.808627 58.707151,9.2224865 56.388591,7.8299103 49.409499,3.6381202 40.831872,3.2617134 33.528487,6.8267544 28.508675,9.2771025 24.330843,13.603906 22.135286,18.626209 c -1.397643,3.197092 -2.000094,6.098509 -2.004014,9.651378 -0.0044,3.969622 0.715519,7.116788 2.420441,10.581401 1.279296,2.599688 2.636265,4.487523 4.681081,6.512379 3.789448,3.752459 8.869713,6.172897 14.215069,6.772616 1.306058,0.146533 4.892956,0.05856 6.235769,-0.152935 z"
     id="path16" />
  <path
     style="fill:#ececec;fill-opacity:1;stroke:#cccccc;stroke-width:0.107643"
     d="m 30.19876,41.281628 c -4.312824,-1.161916 -6.736272,-5.724321 -5.279809,-9.93982 0.384795,-1.113725 0.875224,-1.860906 1.894997,-2.887072 0.781704,-0.786605 1.083447,-1.007425 1.937568,-1.417946 1.355165,-0.65134 2.40081,-0.871158 3.800482,-0.798945 2.867138,0.147922 5.229331,1.744001 6.524425,4.408397 0.221688,0.456079 0.466099,1.146337 0.543136,1.533908 l 0.140066,0.704672 h 1.648713 1.648713 l -7.6e-4,-4.92465 -7.59e-4,-4.92465 -0.77965,-0.186275 c -1.370813,-0.327518 -2.474237,-0.957541 -3.519613,-2.009597 -1.01756,-1.024062 -1.502859,-1.766038 -1.897697,-2.901396 -1.462793,-4.206257 0.983304,-8.7859948 5.304993,-9.9323468 4.957965,-1.3151278 9.937411,2.7799198 9.575753,7.8750038 -0.138961,1.95768 -0.833507,3.457759 -2.271963,4.906973 -0.836388,0.842643 -1.119147,1.051309 -1.996957,1.473676 -0.562432,0.27062 -1.32535,0.55305 -1.695371,0.627625 l -0.672767,0.135589 v 4.930025 4.930023 h 1.647651 1.647649 l 0.185906,-0.780409 c 0.102248,-0.429225 0.387848,-1.192142 0.634669,-1.695371 0.615298,-1.254504 1.999674,-2.656241 3.272423,-3.313461 2.18148,-1.126468 4.674798,-1.170596 6.870427,-0.121594 1.926257,0.920306 3.382857,2.657093 4.054494,4.834409 0.323361,1.048269 0.348207,2.919378 0.05289,3.982777 -0.760701,2.739161 -2.981095,4.904384 -5.682398,5.541204 -0.901662,0.212563 -2.636024,0.208717 -3.527207,-0.0078 -0.978789,-0.237825 -2.303864,-0.897853 -3.08769,-1.537995 -1.203798,-0.983132 -2.203452,-2.580705 -2.584237,-4.129939 l -0.178586,-0.726588 h -4.321606 -4.321606 l -0.17887,0.762165 c -0.622698,2.653315 -2.850925,4.906813 -5.52906,5.591764 -1.095645,0.280219 -2.813418,0.27918 -3.858346,-0.0023 z m 3.860046,-2.084469 c 2.275786,-0.826065 3.723756,-2.881763 3.723756,-5.286653 0,-3.247415 -2.445667,-5.685934 -5.686027,-5.669411 -4.792476,0.02444 -7.353151,5.632198 -4.253476,9.314914 1.475582,1.753136 4.041088,2.43051 6.215747,1.64115 z m 23.893751,0.0015 c 2.289198,-0.83215 3.726668,-2.893853 3.726668,-5.345004 0,-2.569534 -1.628501,-4.715625 -4.125209,-5.436333 -0.875006,-0.252582 -2.300735,-0.231457 -3.202254,0.04745 -1.358843,0.420388 -2.782866,1.616606 -3.371796,2.832399 -1.911071,3.945236 0.996288,8.438476 5.317128,8.217471 0.608315,-0.03111 1.163139,-0.137014 1.655463,-0.31598 z M 45.665713,20.844412 c 2.377658,-0.659304 4.059958,-2.89552 4.063903,-5.40199 0.0042,-2.659673 -1.775819,-4.936437 -4.330233,-5.5387009 -4.020574,-0.9479456 -7.632327,2.5427199 -6.861688,6.6316409 0.374876,1.98904 2.064109,3.79976 4.055558,4.347224 0.779033,0.214162 2.227353,0.196167 3.07246,-0.03817 z"
     id="path17" />
  <path
     style="fill:#ececec;fill-opacity:1;stroke:#cccccc;stroke-width:0.0380574"
     d="m 40.721435,15.660627 v -2.968479 h 0.791998 0.791998 l 0.758842,2.14459 c 0.417362,1.179524 0.775967,2.143454 0.796898,2.142065 0.02093,-0.0014 0.350666,-0.893668 0.732743,-1.982845 0.382076,-1.089177 0.721728,-2.053107 0.754781,-2.142066 l 0.0601,-0.161744 h 0.796058 0.796058 v 2.968479 2.968478 H 46.39199 45.783071 l -8e-5,-0.751634 c -4.3e-5,-0.413399 0.0269,-1.371267 0.05987,-2.128596 0.03297,-0.75733 0.05441,-1.425237 0.04765,-1.48424 -0.0084,-0.07291 -0.25477,0.563191 -0.769289,1.985881 -0.416347,1.151237 -0.782131,2.15738 -0.812852,2.235874 l -0.05586,0.142715 h -0.4145 c -0.227974,0 -0.414499,-0.0055 -0.414499,-0.0123 0,-0.0088 -1.169178,-3.261438 -1.580997,-4.398292 -0.01056,-0.02916 -0.02712,-0.04511 -0.03679,-0.03544 -0.0097,0.0097 0.0076,0.572991 0.03844,1.251827 0.03081,0.678836 0.05625,1.675237 0.05653,2.214225 l 5.1e-4,0.979979 h -0.58989 -0.58989 z"
     id="path18" />
  <path
     style="fill:#ececec;fill-opacity:1;stroke:#cccccc;stroke-width:0.00672766"
     d="m 29.850646,33.739236 v -2.728068 l 1.192478,4.3e-5 c 0.739795,2.7e-5 1.24228,0.0027 1.323668,0.0071 0.389267,0.02084 0.703577,0.09687 0.999058,0.241641 0.231335,0.113345 0.401152,0.235174 0.567069,0.406821 0.355868,0.368161 0.525624,0.832456 0.510538,1.396364 -0.0062,0.231776 -0.03252,0.392305 -0.09586,0.58465 -0.181686,0.551748 -0.640133,0.960718 -1.274662,1.137096 -0.174119,0.0484 -0.371689,0.08226 -0.595139,0.102013 -0.130957,0.01157 -1.366145,0.01698 -1.379331,0.006 -0.0087,-0.0073 -0.0099,0.08609 -0.0099,0.783081 v 0.791325 H 30.46962 29.850675 Z m 2.528185,0.144256 c 0.314737,-0.03428 0.550508,-0.158212 0.684708,-0.359902 0.09332,-0.140251 0.137484,-0.308704 0.137484,-0.524397 0,-0.272967 -0.07178,-0.489408 -0.222496,-0.670955 -0.150678,-0.181494 -0.366119,-0.285496 -0.651132,-0.314328 -0.04274,-0.0043 -0.29565,-0.007 -0.654265,-0.007 h -0.584594 v 0.941873 0.941873 h 0.612483 c 0.384959,0 0.636751,-0.0026 0.677812,-0.0071 z"
     id="path19" />
  <path
     style="fill:#ececec;fill-opacity:1;stroke:#cccccc;stroke-width:0.0110485"
     d="m 54.027377,34.012941 v -2.994155 l 1.173908,1.14e-4 c 0.711849,6.9e-5 1.226094,0.0046 1.30649,0.0115 1.065314,0.09151 1.664828,0.523308 1.801661,1.297635 0.03007,0.170178 0.02744,0.473681 -0.0054,0.618719 -0.09738,0.430555 -0.342065,0.742985 -0.722601,0.922646 l -0.11072,0.05227 0.09303,0.02998 c 0.289832,0.09339 0.524986,0.265411 0.67677,0.495082 0.183782,0.27809 0.246252,0.539616 0.226632,0.948777 -0.04203,0.876588 -0.590922,1.425241 -1.572835,1.572164 -0.225308,0.03371 -0.451495,0.03908 -1.654402,0.03925 l -1.212578,1.71e-4 z m 2.530932,1.982132 c 0.127838,-0.02167 0.271259,-0.07404 0.354632,-0.129491 0.08865,-0.05896 0.199321,-0.180421 0.239922,-0.263311 0.0189,-0.03859 0.04494,-0.112244 0.05787,-0.163686 0.02065,-0.08219 0.02279,-0.114341 0.01764,-0.265165 -0.0094,-0.274182 -0.06216,-0.418474 -0.206755,-0.565106 -0.09292,-0.09423 -0.1829,-0.144376 -0.337061,-0.187853 -0.08655,-0.02441 -0.102496,-0.02501 -0.765111,-0.02895 l -0.676724,-0.004 v 0.812617 0.812617 h 0.605723 c 0.504096,0 0.623197,-0.003 0.709869,-0.01765 z m -0.11026,-2.494169 c 0.349751,-0.06791 0.541422,-0.222515 0.619017,-0.499293 0.02043,-0.07286 0.02454,-0.114619 0.02389,-0.24268 -8.64e-4,-0.171149 -0.02083,-0.272166 -0.0769,-0.388984 -0.0434,-0.09043 -0.16569,-0.211221 -0.257693,-0.254533 -0.223396,-0.105168 -0.38254,-0.123539 -1.074471,-0.124034 l -0.450228,-3.22e-4 v 0.760508 c 0,0.418279 0.0037,0.764215 0.0082,0.768746 0.0045,0.0045 0.256852,0.0062 0.560714,0.0036 0.45678,-0.0038 0.568922,-0.0078 0.647428,-0.02304 z"
     id="path20" />
</svg>
